<?xml version="1.0" encoding="UTF-8" standalone="no"?>
<!-- Created with Inkscape (http://www.inkscape.org/) -->

<svg
   version="1.1"
   id="svg1"
   width="160"
   height="160"
   viewBox="0 0 160 160"
   sodipodi:docname="favicon.svg"
   inkscape:version="1.3 (0e150ed6c4, 2023-07-21)"
   xmlns:inkscape="http://www.inkscape.org/namespaces/inkscape"
   xmlns:sodipodi="http://sodipodi.sourceforge.net/DTD/sodipodi-0.dtd"
   xmlns="http://www.w3.org/2000/svg"
   xmlns:svg="http://www.w3.org/2000/svg">
  <sodipodi:namedview
     id="namedview1"
     pagecolor="#ffffff"
     bordercolor="#000000"
     borderopacity="0.25"
     inkscape:showpageshadow="2"
     inkscape:pageopacity="0.0"
     inkscape:pagecheckerboard="0"
     inkscape:deskcolor="#d1d1d1"
     inkscape:zoom="4.6132813"
     inkscape:cx="65.896698"
     inkscape:cy="68.931414"
     inkscape:window-width="1692"
     inkscape:window-height="1336"
     inkscape:window-x="9"
     inkscape:window-y="16"
     inkscape:window-maximized="0"
     inkscape:current-layer="svg1" />
  <defs
     id="defs1" />
  <rect
     style="fill:#000000;stroke-width:4.06166"
     id="rect2"
     width="160"
     height="160"
     x="0"
     y="0" />
  <g
     id="g1"
     transform="matrix(6.2337886,0,0,6.2337886,-16.63421,-20.147723)">
    <path
       style="white-space:pre;inline-size:9.70132;fill:#f9f9f9"
       d="m 22.199219,8.5169334 q 0,1.1894532 -0.521485,2.1562496 -0.515625,0.966797 -1.376953,1.5 -0.597656,0.369141 -1.335937,0.533204 -0.732422,0.164062 -1.933594,0.164062 H 14.828125 V 4.1458397 h 2.179687 q 1.277344,0 2.027344,0.1875 0.75586,0.1816406 1.277344,0.5039062 0.890625,0.5566407 1.388672,1.4824219 0.498047,0.9257813 0.498047,2.1972656 z m -1.212891,-0.017578 q 0,-1.0253906 -0.357422,-1.7285156 Q 20.271484,6.0677147 19.5625,5.6634178 19.046875,5.3704491 18.466797,5.2591209 17.886719,5.1419334 17.078125,5.1419334 h -1.089844 v 6.7324216 h 1.089844 q 0.837891,0 1.458984,-0.123047 0.626953,-0.123046 1.148438,-0.457031 0.65039,-0.416015 0.972656,-1.095703 0.328125,-0.6796874 0.328125,-1.6992186 z"
       id="text1"
       transform="matrix(2.3711247,0,0,2.3199061,-27.999288,-3.8192824)"
       aria-label="D" />
  </g>
</svg>
